# xmcd CD database file
#
# Track frame offsets:
#	150
#	12604
#	26194
#	39355
#	53803
#	66555
#	78971
#	93054
#	106936
#	119309
#	133169
#	147770
#	159811
#	172845
#	183662
#	196514
#	208884
#	221352
#	234143
#	244988
#
# Disc length: 3440 seconds
#
# Revision: 0
# Processed by: cddbd v1.5.2PL0 Copyright (c) Steve Scherf et al.
# Submitted via: CDex 1.70beta2
#
DISCID=0c0d6e14
DTITLE=Little Walter - Blues Greats
DYEAR=2011
DGENRE=Blues
TTITLE0=Juke
TTITLE1=Can't Hold Out Much Longer
TTITLE2=Mean Old World
TTITLE3=Sad Hours
TTITLE4=Off the Wall
TTITLE5=Tell Me Mama
TTITLE6=Blues With A Feeling
TTITLE7=You're So Fine
TTITLE8=Last Night
TTITLE9=You Better Watch Yourself
TTITLE10=Blue Light
TTITLE11=My Babe
TTITLE12=Roller Coaster
TTITLE13=Who
TTITLE14=Boom Boom (Out Goes The Lights)
TTITLE15=Shake Dancer
TTITLE16=Key To The Highway 
TTITLE17=Everything's Gonna Be Alright
TTITLE18=Just Your Fool
TTITLE19=Dead Presidents
EXTD=YEAR: 2011
EXTT0=
EXTT1=
EXTT2=
EXTT3=
EXTT4=
EXTT5=
EXTT6=
EXTT7=
EXTT8=
EXTT9=
EXTT10=
EXTT11=
EXTT12=
EXTT13=
EXTT14=
EXTT15=
EXTT16=
EXTT17=
EXTT18=
EXTT19=
PLAYORDER=
